<svg xmlns="http://www.w3.org/2000/svg" xmlns:xlink="http://www.w3.org/1999/xlink" width="12"
    height="12" viewBox="0 0 12 12" fill="none">
    <path
        d="M2.30492 8.13437C2.39492 8.28937 2.51492 8.40937 2.66992 8.49937L5.49992 10.1344C5.65492 10.2244 5.82242 10.2669 5.99992 10.2669C6.17742 10.2669 6.34492 10.2244 6.49992 10.1344L9.32992 8.49937C9.48492 8.40937 9.60492 8.28937 9.69492 8.13437C9.78492 7.97937 9.82992 7.81187 9.82992 7.63437L9.82992 4.36437C9.82992 4.18687 9.78492 4.02187 9.69492 3.86687C9.60492 3.71187 9.48492 3.58937 9.32992 3.49937L6.49992 1.86437C6.34492 1.77687 6.17742 1.73187 5.99992 1.73187C5.82242 1.73187 5.65492 1.77687 5.49992 1.86437L5.49992 1.86687L2.66992 3.49937C2.51492 3.58937 2.39492 3.71187 2.30492 3.86687C2.21492 4.02187 2.16992 4.18687 2.16992 4.36437L2.16992 7.63437C2.16992 7.81187 2.21492 7.97937 2.30492 8.13437ZM5.99992 7.25C6.16992 7.25 6.33242 7.2175 6.48742 7.1525C6.63742 7.09 6.76992 7 6.88492 6.885C6.99992 6.77 7.08992 6.6375 7.15242 6.4875C7.21742 6.3325 7.24992 6.17 7.24992 6C7.24992 5.83 7.21742 5.6675 7.15242 5.5125C7.08992 5.3625 6.99992 5.23 6.88492 5.115C6.76992 5 6.63742 4.91 6.48742 4.8475C6.33242 4.7825 6.16992 4.75 5.99992 4.75C5.82992 4.75 5.66742 4.7825 5.51242 4.8475C5.36242 4.91 5.22992 5 5.11492 5.115C4.99992 5.23 4.90992 5.3625 4.84742 5.5125C4.78242 5.6675 4.74992 5.83 4.74992 6C4.74992 6.17 4.78242 6.3325 4.84742 6.4875C4.90992 6.6375 4.99992 6.77 5.11492 6.885C5.22992 7 5.36242 7.09 5.51242 7.1525C5.66742 7.2175 5.82992 7.25 5.99992 7.25ZM5.99992 11.2694C6.35742 11.2694 6.68992 11.1794 6.99992 11.0019L9.82992 9.36437C10.1399 9.18687 10.3824 8.94437 10.5599 8.63437C10.7399 8.32437 10.8299 7.99187 10.8299 7.63437L10.8299 4.36437C10.8299 4.00937 10.7399 3.67437 10.5599 3.36437C10.3824 3.05687 10.1399 2.81437 9.82992 2.63437L6.99992 0.999373C6.68992 0.821873 6.35742 0.731873 5.99992 0.731873C5.64242 0.731873 5.30992 0.821873 4.99992 0.999373L2.16992 2.63437C1.85992 2.81187 1.61742 3.05687 1.43992 3.36437C1.25992 3.67437 1.16992 4.00937 1.16992 4.36437L1.16992 7.63437C1.16992 7.99187 1.25992 8.32437 1.43992 8.63437C1.61742 8.94437 1.85992 9.18687 2.16992 9.36437L4.99992 10.9994C5.30992 11.1794 5.64242 11.2694 5.99992 11.2694ZM7.59242 4.4075C7.38492 4.2 7.14492 4.04 6.87492 3.9275C6.59742 3.81 6.30492 3.75 5.99992 3.75C5.69492 3.75 5.40242 3.81 5.12492 3.9275C4.85492 4.04 4.61492 4.2 4.40742 4.4075C4.19992 4.615 4.03992 4.855 3.92742 5.125C3.80992 5.4025 3.74992 5.695 3.74992 6C3.74992 6.305 3.80992 6.5975 3.92742 6.875C4.03992 7.145 4.19992 7.385 4.40742 7.5925C4.61492 7.8 4.85492 7.96 5.12492 8.0725C5.40242 8.19 5.69492 8.25 5.99992 8.25C6.30492 8.25 6.59742 8.19 6.87492 8.0725C7.14492 7.96 7.38492 7.8 7.59242 7.5925C7.79992 7.385 7.95992 7.145 8.07242 6.875C8.18992 6.5975 8.24992 6.305 8.24992 6C8.24992 5.695 8.18992 5.4025 8.07242 5.125C7.95992 4.855 7.79992 4.615 7.59242 4.4075Z"
        fill-rule="evenodd" fill="currentColor">
</path>
</svg>