<svg xmlns="http://www.w3.org/2000/svg" xmlns:xlink="http://www.w3.org/1999/xlink" width="10.5" height="10.5" viewBox="0 0 10.5 10.5" fill="none">
<path d="M4.1025 3.59C4.17 3.45 4.2625 3.325 4.3825 3.215C4.5025 3.1075 4.6375 3.0225 4.79 2.965C4.9425 2.905 5.095 2.875 5.25 2.875C5.405 2.875 5.5575 2.905 5.71 2.965C5.8625 3.0225 5.9975 3.1075 6.1175 3.215C6.2375 3.325 6.33 3.45 6.3975 3.59C6.465 3.74 6.5 3.8975 6.5 4.0675C6.5 4.2325 6.4725 4.385 6.415 4.525C6.3625 4.6575 6.29 4.7725 6.1925 4.875C6.095 4.9775 5.98 5.0575 5.8475 5.12C5.7125 5.185 5.565 5.225 5.4075 5.2425C5.32 5.25 5.2375 5.2725 5.1575 5.31C5.08 5.3475 5.0075 5.3975 4.9475 5.4625C4.8875 5.525 4.84 5.5975 4.805 5.68C4.77 5.7625 4.7525 5.85 4.75 5.9425L4.75 6.375C4.75 6.3925 4.75 6.4075 4.7525 6.425C4.755 6.44 4.7575 6.4575 4.76 6.4725C4.7625 6.4875 4.7675 6.505 4.7725 6.52C4.7775 6.535 4.7825 6.55 4.7875 6.5675C4.795 6.5825 4.8025 6.5975 4.81 6.61C4.8175 6.625 4.825 6.64 4.835 6.6525C4.8425 6.6675 4.8525 6.68 4.8625 6.6925C4.875 6.705 4.885 6.7175 4.8975 6.7275C4.9075 6.74 4.92 6.75 4.9325 6.7625C4.945 6.7725 4.9575 6.7825 4.9725 6.79C4.985 6.8 5 6.8075 5.015 6.815C5.0275 6.8225 5.0425 6.83 5.0575 6.8375C5.075 6.8425 5.09 6.8475 5.105 6.8525C5.12 6.8575 5.1375 6.8625 5.1525 6.865C5.1675 6.8675 5.185 6.87 5.2 6.8725C5.2175 6.875 5.2325 6.875 5.25 6.875C5.2675 6.875 5.2825 6.875 5.3 6.8725C5.315 6.87 5.3325 6.8675 5.3475 6.865C5.3625 6.8625 5.38 6.8575 5.395 6.8525C5.41 6.8475 5.425 6.8425 5.4425 6.8375C5.4575 6.83 5.4725 6.8225 5.485 6.815C5.5 6.8075 5.515 6.8 5.5275 6.79C5.5425 6.7825 5.555 6.7725 5.5675 6.7625C5.58 6.75 5.5925 6.74 5.6025 6.7275C5.615 6.7175 5.625 6.705 5.6375 6.6925C5.6475 6.68 5.6575 6.6675 5.665 6.6525C5.675 6.64 5.6825 6.625 5.69 6.61C5.6975 6.5975 5.705 6.5825 5.7125 6.5675C5.7175 6.55 5.7225 6.535 5.7275 6.52C5.7325 6.505 5.7375 6.4875 5.74 6.4725C5.7425 6.4575 5.745 6.44 5.7475 6.425C5.75 6.4075 5.75 6.3925 5.75 6.375L5.75 6.2C5.9325 6.1625 6.1075 6.105 6.275 6.025C6.52 5.91 6.7325 5.7575 6.9125 5.5675C7.1 5.37 7.245 5.1475 7.345 4.895C7.4475 4.635 7.5 4.36 7.5 4.0675C7.5 3.75 7.435 3.4525 7.3025 3.17C7.18 2.9075 7.01 2.675 6.79 2.475C6.58 2.285 6.3425 2.1375 6.075 2.0325C5.8075 1.9275 5.5325 1.875 5.25 1.875C4.9675 1.875 4.6925 1.9275 4.425 2.0325C4.1575 2.1375 3.92 2.285 3.71 2.475C3.49 2.675 3.32 2.9075 3.1975 3.17C3.065 3.4525 3 3.75 3 4.0675C3 4.085 3 4.1 3.0025 4.1175C3.005 4.1325 3.0075 4.15 3.01 4.165C3.0125 4.1825 3.0175 4.1975 3.0225 4.2125C3.0275 4.2275 3.0325 4.245 3.0375 4.26C3.045 4.275 3.0525 4.29 3.06 4.3025C3.0675 4.3175 3.075 4.3325 3.085 4.345C3.0925 4.36 3.1025 4.3725 3.1125 4.385C3.125 4.3975 3.135 4.41 3.1475 4.4225C3.1575 4.4325 3.17 4.445 3.1825 4.455C3.195 4.465 3.2075 4.475 3.2225 4.4825C3.235 4.4925 3.25 4.5 3.265 4.51C3.2775 4.5175 3.2925 4.5225 3.3075 4.53C3.325 4.535 3.34 4.5425 3.355 4.5475C3.37 4.55 3.3875 4.555 3.4025 4.5575C3.4175 4.5625 3.435 4.565 3.45 4.565C3.4675 4.5675 3.4825 4.5675 3.5 4.5675C3.5175 4.5675 3.5325 4.5675 3.55 4.565C3.565 4.565 3.5825 4.5625 3.5975 4.5575C3.6125 4.555 3.63 4.55 3.645 4.5475C3.66 4.5425 3.675 4.535 3.6925 4.53C3.7075 4.5225 3.7225 4.5175 3.735 4.51C3.75 4.5 3.765 4.4925 3.7775 4.4825C3.7925 4.475 3.805 4.465 3.8175 4.455C3.83 4.445 3.8425 4.4325 3.8525 4.4225C3.865 4.41 3.875 4.3975 3.8875 4.385C3.8975 4.3725 3.9075 4.36 3.915 4.345C3.925 4.3325 3.9325 4.3175 3.94 4.3025C3.9475 4.29 3.955 4.275 3.9625 4.26C3.9675 4.245 3.9725 4.2275 3.9775 4.2125C3.9825 4.1975 3.9875 4.1825 3.99 4.165C3.9925 4.15 3.995 4.1325 3.9975 4.1175C4 4.1 4 4.085 4 4.0675C4 3.8975 4.035 3.74 4.1025 3.59ZM3.2075 10.0875C3.8575 10.3625 4.5375 10.5 5.25 10.5C5.9625 10.5 6.6425 10.3625 7.2925 10.0875C7.9225 9.8225 8.4775 9.4475 8.9625 8.9625C9.4475 8.4775 9.8225 7.9225 10.0875 7.2925C10.3625 6.6425 10.5 5.9625 10.5 5.25C10.5 4.5375 10.3625 3.8575 10.0875 3.2075C9.8225 2.5775 9.4475 2.0225 8.9625 1.5375C8.4775 1.0525 7.9225 0.6775 7.2925 0.4125C6.6425 0.1375 5.9625 0 5.25 0C4.5375 0 3.8575 0.1375 3.2075 0.4125C2.5775 0.6775 2.0225 1.0525 1.5375 1.5375C1.0525 2.0225 0.6775 2.5775 0.4125 3.2075C0.1375 3.8575 0 4.5375 0 5.25C0 5.9625 0.1375 6.6425 0.4125 7.2925C0.6775 7.9225 1.0525 8.4775 1.5375 8.9625C2.0225 9.4475 2.5775 9.8225 3.2075 10.0875ZM2.245 2.245C1.8525 2.6375 1.55 3.0875 1.335 3.5975C1.1125 4.1225 1 4.6725 1 5.25C1 5.8275 1.1125 6.3775 1.335 6.9025C1.55 7.4125 1.8525 7.8625 2.245 8.255C2.6375 8.6475 3.0875 8.95 3.5975 9.165C4.1225 9.3875 4.6725 9.5 5.25 9.5C5.8275 9.5 6.3775 9.3875 6.9025 9.165C7.4125 8.95 7.8625 8.6475 8.255 8.255C8.6475 7.8625 8.95 7.4125 9.165 6.9025C9.3875 6.3775 9.5 5.8275 9.5 5.25C9.5 4.6725 9.3875 4.1225 9.165 3.5975C8.95 3.0875 8.6475 2.6375 8.255 2.245C7.8625 1.8525 7.4125 1.55 6.9025 1.335C6.3775 1.1125 5.8275 1 5.25 1C4.6725 1 4.1225 1.1125 3.5975 1.335C3.0875 1.55 2.6375 1.8525 2.245 2.245ZM5.875 7.875C5.875 7.53 5.595 7.25 5.25 7.25C4.905 7.25 4.625 7.53 4.625 7.875C4.625 8.22 4.905 8.5 5.25 8.5C5.595 8.5 5.875 8.22 5.875 7.875Z" fill-rule="evenodd"  fill="currentColor" >
</path>
</svg>
